<?xml version="1.0" encoding="UTF-8"?>
<svg xmlns="http://www.w3.org/2000/svg" version="1.1" viewBox="0 0 18 18">
  <defs>
    <style>
      .cls-1 {
        fill: #fff;
      }
    </style>
  </defs>
  <!-- Generator: Adobe Illustrator 28.7.1, SVG Export Plug-In . SVG Version: 1.2.0 Build 142)  -->
  <g>
    <g id="Layer_1">
      <path class="cls-1" d="M7.5,16.2v-3.8h5.8l.9.4v-.4h.7v3.8h-.7v-.4l-.9.4h-5.8ZM7.1,16.2h0c-.4,0-.9,0-1.4,0-1-.1-1.7-.4-2.1-.8-.3-.3-.4-.6-.4-1s.1-.7.4-1c.4-.4,1.1-.7,2.1-.8.5,0,1-.1,1.4,0h0v3.8Z"/>
      <path class="cls-1" d="M7.5,10.9v-3.8h5.8l.9.4v-.4h.7v3.8h-.7v-.4l-.9.4h-5.8ZM7.1,10.9h0c-.4,0-.9,0-1.4,0-1-.1-1.7-.4-2.1-.8-.3-.3-.4-.6-.4-1s.1-.7.4-1c.4-.4,1.1-.7,2.1-.8.5,0,1-.1,1.4,0h0v3.8Z"/>
      <path class="cls-1" d="M7.5,5.6V1.8h5.8l.9.4v-.4h.7v3.8h-.7v-.4l-.9.4h-5.8ZM7.1,5.6h0c-.4,0-.9,0-1.4,0-1-.1-1.7-.4-2.1-.8-.3-.3-.4-.6-.4-1s.1-.7.4-1c.4-.4,1.1-.7,2.1-.8.5,0,1-.1,1.4,0h0v3.8Z"/>
    </g>
  </g>
</svg>