<?xml version="1.0" encoding="UTF-8"?>
<svg xmlns="http://www.w3.org/2000/svg" version="1.1" viewBox="0 0 70 70">
  <!-- Generator: Adobe Illustrator 28.7.1, SVG Export Plug-In . SVG Version: 1.2.0 Build 142)  -->
  <g>
    <g id="Layer_1">
      <g>
        <path d="M23,42.1c.3-1,1.8-2.1,4.2-3.7s8.3-1.8,8.3-1.8c0,0,5.9.3,8.3,1.8s4,2.6,4.2,3.7c.3,1,3,2.9,3-5.4s-7.8-16.9-15.6-16.9-15.4,8.6-15.4,16.9,2.8,6.4,3,5.4Z"/>
        <path d="M10.8,9.3v32.6c7.7,18.7,23.9,22.2,24.6,22.3h.2c0,0,.2,0,.2,0,.7-.1,16.9-3.6,24.5-22.3v-.5c.1,0,.1-29.3.1-29.3v-2.8H10.8ZM57.6,41.1c-6.6,16-20.3,19.9-22,20.3-1.7-.4-15.3-4.2-22-20.3V12.1h44v29Z"/>
      </g>
    </g>
  </g>
</svg>