<?xml version="1.0" encoding="UTF-8"?>
<svg xmlns="http://www.w3.org/2000/svg" version="1.1" viewBox="0 0 19 19">
  <defs>
    <style>
      .cls-1 {
        fill: #fff;
      }

      .cls-2 {
        fill-rule: evenodd;
      }
    </style>
  </defs>
  <!-- Generator: Adobe Illustrator 28.7.1, SVG Export Plug-In . SVG Version: 1.2.0 Build 142)  -->
  <g>
    <g id="Layer_1">
      <circle class="cls-1" cx="9.5" cy="9.5" r="9.5"/>
      <path class="cls-2" d="M6.8,3.6v.2h-.5l-.2-.5h0c0,0-.2-.2-.5-.2s-.4,0-.5.2h0c-.1.1-.2.3-.2.4,0,.3,0,.6,0,.7h0s-.5,0-.5,0c0,.2-.2.8-.2,1.1,0,.3,0,1,0,1.2h0v2.6h.9v1.1l-.3.3s0,0,0,.1c-.1.1-.3.3-.3.4,0,.2,0,.4.2.6,0,0,0,.2,0,.2,0,0,0,.1.2.2,0,0,.2.2.2.3v3.1c-.2.2-.2.7-.1.8s.4.1.6.1c.7,0,2.2.2,2.2.2s.2-.2.2-.3c0,0,0,.1.2.1h2.7l.2-.2c0,.1.2.4.5.4h2.1c.1,0,.4,0,.4-.5,0-.4,0-1.8,0-2.6.2,0,.5-.4.6-.5s.2-.4.2-.5,0-.4-.1-.5h0c0,0,0,0,0,0h0c0-.1-.1-.4-.3-.6,0,0-.2-.2-.2-.3v-2.3h0v-4.9c0,0,0-.2-.4-.2h0s0,0-.1,0l-.2-.5c0,0-.2-.3-.2-.4h0c0,0-.2-.3-.3-.3,0,0-.3,0-.3,0s-.2.2-.3.3c0,0,0,0,0,0h0c0,0,0,.2,0,.2h0c0,0,0,0,0,0,0,0,0,0-.1,0-.1-.1-.3-.3-.5-.5-.2-.1-.3-.2-.5-.2s-.3,0-.4.2c0,0-.1.2-.1.3-.4,0-.8-.3-1.1-.4,0,0-.1,0-.2,0-.3-.1-.7-.2-1-.2-.3,0-.6.2-.7.2-.1,0-.3.3-.3.5v.3c0,0-.1.2-.1.2h0ZM14.2,11.7v1.6s0,0,0,0h0c0,0,.3-.2.4-.4,0-.3,0-.4,0-.5h0s0,0,0,0c0,0-.2-.4-.3-.4,0,0,0,0-.1,0ZM5.2,12.1v-.9c0,0-.3.2-.3.4,0,.1.1.3.2.4,0,0,0,0,0,.1ZM13.1,3.1c0,0,.1.3.2.5-.2,0-.6-.2-.9-.3,0,0,0-.1,0-.2,0,0,0-.2.1-.2,0,0,.2,0,.3,0,0,0,.2.1.3.3ZM12.4,3.7h0c.3,0,.6,0,.9,0,0,0-.1,0-.2-.1,0,0-.1,0-.1,0-.2,0-.3,0-.5-.1v.2ZM10.2,3.2c-.6-.1-1.4-.4-1.4-.4-.2,0-.7-.2-.8-.2s-.7.2-.8.5c-.1.3,0,.4,0,.5h0c0,.1,0,.3,0,.3h1c.2,0,.2.2.3.3h0s0,0,0,0h0c0-.2.1-.2.2-.3h1.5v-.2s.1-.2.1-.2c0,0,0-.1,0-.2ZM10.4,3.8h0c0,0,0-.4,0-.4,0,0,0,0,0-.2.1,0,.3,0,.4,0,.2,0,.4,0,.6,0,0,0,0,0,.1,0l.4.5h-.3c-.1,0-.4.2-.5.3,0,0,0,0,0,0,0-.1-.1-.3-.3-.3,0,0-.6,0-.6,0ZM11.4,3.1c-.3,0-.6,0-.8,0h0s0,0,0-.1c0,0,.1-.2.3-.2s.3,0,.4.2l.2.2ZM5.9,3.6v.2c0,0-.4,0-.4,0,0,0-.2,0-.2.2v.3h-.3c0,0,0-.4,0-.6s0-.3,0-.3c0,0,.2-.3.4-.3s.3.1.4.2v.2ZM7.4,5.2c0-.1,0-.2.2-.2h5.2c.1,0,.2,0,.2.2v1.2c0,.1,0,.2-.2.2h-5.2c-.1,0-.2,0-.2-.2v-1.2ZM7.8,9.5c-.1,0-.2,0-.2.2v4.1c0,.1,0,.2.2.2h3.7c.1,0,.2,0,.2-.2v-4.1c0-.1,0-.2-.2-.2h-3.7ZM8.2,10h.6v.6h-.6v-.6ZM9.9,10h-.6v.6h.6v-.6h0ZM10.4,10h.6v.6h-.6v-.6ZM8.8,11h-.6v.6h.6v-.6h0ZM9.3,11h.6v.6h-.6v-.6ZM11.1,11h-.6v.6h.6v-.6ZM8.2,12h.6v.6h-.6v-.6ZM9.9,12h-.6v.6h.6v-.6h0ZM10.4,12h.6v.6h-.6v-.6ZM8.8,13h-.6v.6h.6v-.6h0ZM9.3,13h.6v.6h-.6v-.6ZM11.1,13h-.6v.6h.6v-.6Z"/>
    </g>
  </g>
</svg>