<?xml version="1.0" encoding="UTF-8"?>
<svg xmlns="http://www.w3.org/2000/svg" version="1.1" xmlns:xlink="http://www.w3.org/1999/xlink" viewBox="0 0 18 18">
  <defs>
    <style>
      .cls-1 {
        fill: #fff;
      }

      .cls-2, .cls-3 {
        fill-rule: evenodd;
      }

      .cls-3 {
        display: none;
        fill: url(#linear-gradient);
      }
    </style>
    <linearGradient id="linear-gradient" x1="9" y1="4.2" x2="9" y2="17.8" gradientTransform="translate(0 20) scale(1 -1)" gradientUnits="userSpaceOnUse">
      <stop offset=".2" stop-color="#c02120"/>
      <stop offset="1" stop-color="#e23937"/>
    </linearGradient>
  </defs>
  <!-- Generator: Adobe Illustrator 28.7.1, SVG Export Plug-In . SVG Version: 1.2.0 Build 142)  -->
  <g>
    <g id="Layer_1">
      <circle class="cls-1" cx="9" cy="9" r="9"/>
      <path class="cls-3" d="M6.4,3.4v.2h-.4l-.2-.5h0c0,0-.2-.2-.5-.2s-.4,0-.5.2h0c-.1,0-.2.2-.2.4,0,.3,0,.5,0,.7h0s-.5,0-.5,0c0,.2-.1.7-.2,1,0,.3,0,.9,0,1.2h0v2.5h.9v1.1l-.2.2s0,0,0,.1c-.1.1-.3.3-.2.4,0,.1,0,.4.2.5,0,0,0,.2,0,.2,0,0,0,.1.2.2,0,0,.2.2.2.3v3c-.2.2-.2.6-.1.7s.4.1.5.1c.7,0,2.1.2,2.1.2s.2-.2.2-.3c0,0,0,.1.2.1h2.5v-.2c.2.1.3.4.6.4h2c.1,0,.4,0,.4-.4,0-.3,0-1.7,0-2.5.2,0,.5-.4.6-.4s.2-.3.2-.5,0-.3-.1-.4h0c0,0,0,0,0,0h0c0-.1-.1-.4-.3-.6,0,0-.1-.2-.2-.2v-2.2h0V3.8c0,0,0-.2-.4-.2h0s0,0-.1,0l-.2-.5c0,0-.2-.3-.2-.3h0c0,0-.2-.2-.3-.2,0,0-.2,0-.3,0s-.2.2-.3.2c0,0,0,0,0,0h0c0,0,0,.2,0,.2h0c0,0,0,0,0,0,0,0,0,0-.1,0-.1-.1-.3-.3-.5-.5-.1-.1-.3-.2-.5-.2s-.3,0-.4.2c0,0,0,.2-.1.3-.3,0-.8-.3-1.1-.4,0,0-.1,0-.2,0-.3-.1-.7-.2-.9-.2-.3,0-.5.1-.7.2-.1,0-.2.3-.3.4v.2c0,0-.1.2-.1.2h0ZM13.5,11.1v1.5s0,0,0,0h0c0,0,.3-.2.4-.4,0-.3,0-.4,0-.5h0s0,0,0,0c0,0-.2-.3-.3-.4,0,0,0,0-.1,0ZM4.9,11.5v-.9c0,0-.3.2-.3.4,0,.1.1.2.2.4,0,0,0,0,0,.1ZM12.4,2.9c0,0,.1.3.2.4-.2,0-.6-.2-.9-.3,0,0,0-.1,0-.2,0,0,0-.2.1-.2,0,0,.2,0,.3,0,0,0,.2.1.3.3ZM11.8,3.5h0c.3,0,.6,0,.8,0,0,0-.1,0-.2-.1,0,0-.1,0-.1,0-.2,0-.3,0-.5-.1v.2ZM9.7,3c-.6-.1-1.3-.4-1.3-.4-.2,0-.6-.2-.8-.2s-.7.2-.8.5c0,.3,0,.4,0,.4h0c0,.1,0,.2,0,.2h.9c.2,0,.2.2.2.3h0s0,0,0,0h0c0-.2.1-.2.2-.2h1.4v-.2s.1-.2.1-.2c0,0,0-.1,0-.2ZM9.8,3.6h0c0,0,0-.4,0-.4,0,0,0,0,0-.2.1,0,.3,0,.4,0,.2,0,.4,0,.6,0,0,0,0,0,.1,0l.4.4h-.3c-.1,0-.4.2-.4.3,0,0,0,0,0,0,0,0-.1-.3-.3-.3,0,0-.5,0-.5,0ZM10.8,2.9c-.3,0-.6,0-.8,0h0s0,0,0,0c0,0,.1-.2.2-.2s.3,0,.4.2l.2.2ZM5.6,3.4v.2c0,0-.4,0-.4,0,0,0-.2,0-.2.2v.3h-.2c0,0,0-.3,0-.6s0-.3,0-.3c0,0,.2-.2.4-.2s.3,0,.4.2v.2ZM7,4.9c0-.1,0-.2.2-.2h4.9c.1,0,.2,0,.2.2v1.2c0,.1,0,.2-.2.2h-4.9c-.1,0-.2,0-.2-.2v-1.2ZM7.4,9c-.1,0-.2,0-.2.2v3.9c0,.1,0,.2.2.2h3.5c.1,0,.2,0,.2-.2v-3.9c0-.1,0-.2-.2-.2h-3.5ZM7.8,9.5h.6v.6h-.6v-.6ZM9.4,9.5h-.6v.6h.6v-.6h0ZM9.9,9.5h.6v.6h-.6v-.6ZM8.4,10.4h-.6v.6h.6v-.6h0ZM8.8,10.4h.6v.6h-.6v-.6ZM10.5,10.4h-.6v.6h.6v-.6ZM7.8,11.4h.6v.6h-.6v-.6ZM9.4,11.4h-.6v.6h.6v-.6h0ZM9.9,11.4h.6v.6h-.6v-.6ZM8.4,12.3h-.6v.6h.6v-.6h0ZM8.8,12.3h.6v.6h-.6v-.6ZM10.5,12.3h-.6v.6h.6v-.6Z"/>
      <path class="cls-2" d="M16.2,8.8h0c0,.1,0,.1,0,.2,0,0,0,.1-.1.2,0,0-.1,0-.2.1,0,0-.2,0-.3,0,0,0-.2,0-.3-.1-.6-.4-1.2-.7-1.8-.9-.5-.2-1-.3-1.5-.4-.4,0-.8,0-1.2,0-.3,0-.6,0-.9.1-.2,0-.4,0-.6,0-.2,0-.4,0-.6,0h0c-.1,0-.2,0-.3-.1,0,0-.2,0-.3,0,0,0-.2,0-.2,0,0,0,0,.2-.1.2,0,0,0,.1-.2.1,0,0,.1.2.2.4.1.2.3.3.4.5,0,0,0,0,0,0,0,0,0,0,0,0l.4.4c.1,0,.1,0,0,.2,0,0,0,0,0,0s0,0,0,0l-.2-.2c0,.3.2.5.2.8,0,.3,0,.6.1.9.1.7.4,1.4.8,2,.4.6.9,1.1,1.6,1.5,0,0,.2.1.2.2,0,0,0,.1,0,.2h0c0,.2,0,.2,0,.3,0,0,0,0,0,.2t0,.1s0,0-.2.1c-.1,0-.3,0-.5-.1h0c-.8-.5-1.4-1.1-1.9-1.8-.5-.7-.8-1.4-1-2.2,0-.3,0-.6,0-.8,0-.2,0-.5,0-.7,0-.2,0-.3,0-.5,0-.2,0-.3,0-.4l-.2-.2-.3-.5c0,0-.2-.2-.2-.3,0,0-.1-.2-.2-.2,0,0,0,0,0-.1,0,0-.1,0-.3-.1-.1,0-.2-.1-.4-.2-.2,0-.3-.1-.5-.2l-2.4-2h0c0-.1,0-.2,0-.2h0c0-.1,0-.1.1-.1l2.6,1s0,0,0,.1c0,0,0,0,0,.1,0,.1,0,.2,0,.2,0,0,.2,0,.2,0,0,0,0,0,0,0h0s.2-.4.2-.4c0,0,0-.2,0-.2,0,0,0,0-.1,0h0s0,0-.1,0c0,0,0,0,0,0l-1.7-2.2s0,0,0-.1.1,0,.1,0l2.3,1.5h0c.2.2.3.4.4.6.1.1.2.3.3.4.1.1.2.2.2.2,0,0,.1,0,.3,0,.1,0,.3,0,.4.1.2,0,.3,0,.5.1.1,0,.2,0,.2,0,0,0,.4,0,.9,0,.5,0,1.1,0,1.9,0s.9,0,1.2,0c.3,0,.6.1.9.2.3.1.6.3,1,.5.4.2.8.6,1.4,1,0,0,.2.2.1.4ZM8.7,8.6l.6.2s0,0,0,.1c0,0,0,0,0,0,0,0,0,0,0,0h-.6c0-.1,0-.2,0-.2h0c0-.1,0-.2,0-.2,0,0,0,0,0,0ZM8.8,8.4s0,0,0,0c0,0,0,0,0,0h.6c0,.1,0,.1.1.1,0,0,0,0,0,0s0,0,0,0h-.7c0,0,0-.1,0-.2ZM9.1,9.4c0,0-.1,0-.1,0,0,0,0,0,0,0l-.5-.3s0,0,0-.1c0,0,0,0,0,0,0,0,0,0,0,0l.5.3c0,0,0,0,.1,0h0Z"/>
    </g>
  </g>
</svg>