<?xml version="1.0" encoding="UTF-8"?>
<svg xmlns="http://www.w3.org/2000/svg" version="1.1" viewBox="0 0 70 70">
  <!-- Generator: Adobe Illustrator 28.7.1, SVG Export Plug-In . SVG Version: 1.2.0 Build 142)  -->
  <g>
    <g id="Layer_2">
      <path d="M66.1,14.9c-2.5,0-5.4,2-6.4,4.5l-.5,1.1s-.5.8-2.2.8-3.6,0-3.6,0h-1.4c-.5,0-1.1-.3-1.1-1.2h0c0-.7-.3-1.9-1.2-3.1-1.8-2.2-4.7-2.1-5.1-2.1h-27c-3.7,0-8.1,3-9.7,6.8L.8,38.1c-2.3,5.3.2,9.6,5.5,9.6h27c3.2,0,6.7-2.2,8.7-5.1h0s0,0,0,0c0,0,0-.1.1-.2.3-.3.9-.9,2.1-.9h4.9c.2,0,.9,0,.7.8,0,0,0,0,0,0-1,3,.5,5.4,3.6,5.4s5.4-2,6.4-4.5l9.5-22.4c1.4-3.3-.1-5.9-3.4-5.9Z"/>
    </g>
  </g>
</svg>