<svg width="76" height="182" viewBox="0 0 76 182" fill="none" xmlns="http://www.w3.org/2000/svg">
<g clip-path="url(#clip0_553_99)">
<path d="M75.0501 41.94L49.7001 1.48C49.1101 0.55 48.0901 0 46.9901 0C36.1801 0.17 24.7801 -0.23 13.7801 1.11C6.76006 1.97 8.93006 11.69 15.8201 12.6C16.2101 12.66 16.5001 12.99 16.5001 13.38L16.4201 23.44C16.4201 23.86 16.2601 24.21 15.9301 24.48L8.01006 31.1C7.66006 31.4 7.26006 31.5 6.82006 31.41C4.62006 30.94 2.59006 31.24 0.720059 32.27C0.290059 32.52 0.0200586 32.97 0.0200586 33.47V53.46C0.0200586 53.76 0.140059 54.04 0.360059 54.24L6.04006 59.56C6.37006 59.87 6.55006 60.3 6.55006 60.75V72.6C6.55006 73.25 6.88006 73.53 7.53006 73.44L8.88006 73.24C9.27006 73.18 9.61006 73.48 9.63006 73.86C9.77006 77.47 9.72006 81.08 9.51006 84.69C9.41006 86.28 8.64006 87.02 7.17006 86.92C6.77006 86.89 6.57006 87.08 6.56006 87.48V100.3C6.56006 100.7 6.87006 101.03 7.26006 101.05L8.78006 101.13C9.29006 101.16 9.55006 101.44 9.56006 101.95L9.72006 113.83C9.73006 114.42 9.44006 114.72 8.86006 114.72H7.41006C6.94006 114.72 6.56006 115.11 6.56006 115.57V128.06C6.56006 128.63 6.84006 128.91 7.41006 128.91H8.97006C9.45006 128.91 9.69006 129.15 9.69006 129.61V141.96C9.69006 142.33 9.50006 142.53 9.12006 142.53H7.37006C6.96006 142.53 6.62006 142.85 6.61006 143.26C6.49006 147.36 7.46006 153.81 5.55006 157.42C3.68006 160.96 0.0800586 165.64 0.0300586 169.68C5.85951e-05 172.51 0.0100586 175.32 0.0600586 178.14C0.0900586 179.81 1.45006 181.14 3.11006 181.14H55.6401C57.2101 181.14 58.4801 179.87 58.4801 178.3C58.5001 174.39 59.3201 168.92 57.3101 165.4C55.5401 162.31 53.7501 159.22 51.9201 156.14C51.8401 156 51.8101 155.86 51.8001 155.7L51.4301 143.58C51.4201 143.16 51.2101 142.89 50.8101 142.76C49.2801 142.29 48.5801 141.26 48.7401 139.66C49.0201 136.59 49.0001 133.39 49.2201 130.28C49.2501 129.91 49.4201 129.63 49.7401 129.45C50.8301 128.83 51.3701 127.99 51.3901 126.93C51.4101 123.35 51.4201 119.77 51.3901 116.17C51.3901 115.75 51.2201 115.42 50.8801 115.18L49.6501 114.31C49.3001 114.05 49.1301 113.71 49.1201 113.27L49.0101 102.64C49.0101 102.22 49.1801 101.88 49.5201 101.64L50.8701 100.68C51.1801 100.46 51.3501 100.18 51.3501 99.81L51.7601 91.97L51.6901 87.7C51.6801 87.31 51.3701 86.98 50.9901 86.96L49.5601 86.89C49.1601 86.87 48.8601 86.54 48.8601 86.14V74.33C48.8601 73.94 49.1601 73.61 49.5401 73.58L50.9101 73.44C51.3501 73.39 51.6801 73.02 51.6901 72.58V60.51C51.6901 60.2 51.8001 59.94 52.0401 59.73L58.0601 54.41C58.3401 54.16 58.5001 53.8 58.5001 53.42V41.45C58.5001 40.94 59.0401 40.62 59.4901 40.88L69.5401 46.67C69.9301 46.9 70.1201 47.24 70.1201 47.69L70.0501 117.96L70.1001 126.25C70.1001 126.65 69.9201 126.93 69.5601 127.1C65.0301 129.17 60.4701 131.13 57.5401 135.26C56.7201 136.42 57.3701 138.03 58.7501 138.29L61.5901 138.82C62.0101 138.9 62.4201 138.85 62.8001 138.66L75.2101 132.77C75.6001 132.59 75.7901 132.28 75.7901 131.85L75.8501 123.18V44.57C75.8501 43.64 75.5901 42.72 75.0901 41.94H75.0501ZM29.9501 129.79C25.5601 129.79 22.0001 126.23 22.0001 121.84C22.0001 117.45 25.5601 113.89 29.9501 113.89C34.3401 113.89 37.9001 117.45 37.9001 121.84C37.9001 126.23 34.3401 129.79 29.9501 129.79ZM29.9501 105.36C25.5601 105.36 22.0001 101.8 22.0001 97.41C22.0001 93.02 25.5601 89.46 29.9501 89.46C34.3401 89.46 37.9001 93.02 37.9001 97.41C37.9001 101.8 34.3401 105.36 29.9501 105.36ZM29.9501 81.92C25.5601 81.92 22.0001 78.36 22.0001 73.97C22.0001 69.58 25.5601 66.02 29.9501 66.02C34.3401 66.02 37.9001 69.58 37.9001 73.97C37.9001 78.36 34.3401 81.92 29.9501 81.92Z" fill="white"/>
</g>
<defs>
<clipPath id="clip0_553_99">
<rect width="75.81" height="181.14" fill="white"/>
</clipPath>
</defs>
</svg>
