<svg width="174" height="202" viewBox="0 0 174 202" fill="none" xmlns="http://www.w3.org/2000/svg">
<g clip-path="url(#clip0_587_6)">
<path d="M131.72 65.8736L148.905 29.288C150.077 26.5635 147.343 23.839 144.609 25.0067L107.894 42.1318C106.332 42.9102 103.989 42.1318 103.598 40.1858L89.931 2.04335C88.7592 -0.681115 84.8534 -0.681115 84.0723 2.04335L70.402 40.1858C69.6208 42.1318 67.6679 42.9102 66.1056 42.1318L29.3911 25.0067C26.6571 23.839 23.923 26.5635 25.0947 29.288L42.2802 65.8736C43.0614 67.4304 42.2803 69.7656 40.3274 70.1549L2.05054 83.7772C-0.683514 84.9448 -0.683514 88.8369 2.05054 89.6153L40.3274 103.238C42.2803 104.016 43.0614 105.962 42.2802 107.519L25.0947 144.104C23.923 146.829 26.6571 149.553 29.3911 148.386L66.1056 130.871C67.6679 130.093 70.0114 130.871 70.402 132.817L84.0723 170.96C85.244 173.684 89.1498 173.684 89.931 170.96L103.601 132.817C104.382 130.871 106.335 130.093 107.898 130.871L144.612 148.386C147.346 149.553 150.08 146.829 148.908 144.104L131.723 107.519C130.942 105.962 131.723 103.627 133.676 103.238L171.953 89.6153C174.687 88.4477 174.687 84.5556 171.953 83.7772L133.676 70.1549C131.723 69.7656 130.942 67.8196 131.723 65.8736H131.72Z" fill="white" fill-opacity="0.45"/>
</g>
<path d="M124.354 144.137L124.298 152.684C124.298 153.109 124.108 153.411 123.727 153.59L111.499 159.397C111.119 159.587 110.716 159.632 110.302 159.553L107.505 159.028C106.14 158.77 105.503 157.182 106.308 156.04C109.195 151.968 113.692 150.033 118.156 147.996C118.514 147.829 118.693 147.549 118.693 147.157L118.648 138.99L118.715 69.7385C118.715 69.2909 118.525 68.9553 118.145 68.7316L108.244 63.0258C107.807 62.7685 107.27 63.0818 107.27 63.5852V75.3771C107.27 75.7463 107.114 76.1043 106.834 76.3504L100.905 81.5974C100.67 81.81 100.558 82.0673 100.558 82.3694V94.2619C100.547 94.6982 100.222 95.0674 99.7858 95.1122L98.4321 95.2464C98.0517 95.28 97.7608 95.6044 97.7608 95.9848V107.62C97.7608 108.012 98.0629 108.336 98.4545 108.358L99.8641 108.426C100.244 108.448 100.547 108.772 100.558 109.153L100.625 113.359L100.222 121.09C100.222 121.459 100.054 121.739 99.7522 121.951L98.4209 122.902C98.0853 123.137 97.9174 123.473 97.9174 123.887L98.0293 134.359C98.0405 134.795 98.2083 135.131 98.5551 135.388L99.7634 136.249C100.099 136.484 100.267 136.809 100.267 137.223C100.3 140.769 100.289 144.305 100.267 147.829C100.256 148.869 99.7187 149.697 98.6447 150.312C98.3314 150.491 98.1636 150.76 98.13 151.129C97.9175 154.194 97.9398 157.349 97.6601 160.37C97.5035 161.948 98.186 162.966 99.6963 163.424C100.099 163.547 100.3 163.816 100.312 164.23L100.681 176.178C100.692 176.335 100.726 176.48 100.804 176.615C102.605 179.658 104.373 182.701 106.118 185.744C108.098 189.212 107.293 194.604 107.27 198.453C107.27 199.997 106.017 201.25 104.473 201.25H52.7079C51.0633 201.25 49.732 199.941 49.6984 198.296C49.6425 195.522 49.6313 192.747 49.6649 189.962C49.7096 185.979 53.2561 181.369 55.1021 177.879C56.9816 174.321 56.0195 167.967 56.1426 163.928C56.1537 163.525 56.4894 163.212 56.8921 163.212H58.615C58.9842 163.212 59.1744 163.022 59.1744 162.652V150.48C59.1744 150.021 58.9395 149.786 58.4696 149.786H56.9369C56.3775 149.786 56.0978 149.507 56.0978 148.947V136.641C56.0978 136.182 56.4782 135.802 56.9369 135.802H58.3689C58.9395 135.802 59.2304 135.511 59.2192 134.929L59.0626 123.227C59.0514 122.723 58.794 122.455 58.2906 122.421L56.7914 122.343C56.3999 122.321 56.0978 121.996 56.0978 121.605V108.974C56.109 108.582 56.3104 108.392 56.7019 108.426C58.1452 108.526 58.9059 107.799 59.0066 106.233C59.2192 102.675 59.2639 99.1174 59.1297 95.5597C59.1073 95.1793 58.7717 94.8884 58.3913 94.9444L57.0599 95.1457C56.4223 95.2352 56.0978 94.9556 56.0978 94.3179V82.6379C56.0978 82.1904 55.9188 81.7652 55.5944 81.4632L50.0005 76.2161C49.7879 76.0148 49.6649 75.7351 49.6649 75.4442V55.7426C49.6649 55.2504 49.9334 54.8029 50.3585 54.5567C52.1933 53.5387 54.1959 53.2478 56.3663 53.7065C56.8026 53.796 57.1942 53.6953 57.541 53.4044L65.35 46.882C65.6745 46.6135 65.8311 46.2667 65.8311 45.8527L65.9094 35.9404C65.9094 35.5488 65.6185 35.2244 65.2382 35.1684C58.4472 34.2734 56.3104 24.6968 63.2244 23.8465C74.0653 22.5263 85.2977 22.9179 95.9484 22.7501C97.0336 22.7501 98.0405 23.2871 98.6223 24.2045L123.604 64.0775C124.097 64.8494 124.354 65.7556 124.354 66.673V144.137Z" fill="white"/>
<defs>
<clipPath id="clip0_587_6">
<rect width="174" height="173" fill="white"/>
</clipPath>
</defs>
</svg>
