<svg width="138" height="160" viewBox="0 0 138 160" fill="none" xmlns="http://www.w3.org/2000/svg">
<path d="M33.0339 11.2905L35.8911 2.23174C36.3144 0.904997 37.549 0 38.9511 0H93.9783C95.7332 0 97.1617 1.41461 97.1794 3.1631L97.4704 46.8753C97.4792 47.1829 97.6203 47.3937 97.9113 47.4904C115.504 53.7726 127.541 65.1686 134.023 81.6782C147.233 115.33 126.148 151.627 91.2534 158.849C61.8086 164.947 32.302 146.135 24.5065 117.298C20.45 102.282 22.3283 87.6441 30.1503 73.4014C30.3179 73.0939 30.2209 72.9357 29.8769 72.927C25.2296 72.7424 20.838 71.609 16.6845 69.5266C16.323 69.3421 16.0849 69.4476 15.9702 69.8342C15.7321 70.6249 15.591 71.5651 15.5469 72.6546L13.3071 130.469C13.069 137.094 11.5169 140.626 4.11822 139.607C1.78133 139.282 0.626117 137.999 0.652572 135.75L1.54324 74.4031C1.59615 70.7479 5.44981 65.7309 7.36342 62.6117C7.52215 62.3569 7.50451 62.1109 7.31051 61.8737C-10.1941 40.8742 5.92601 11.2026 32.4872 11.6771C32.7694 11.6771 32.9546 11.5541 33.0339 11.2905ZM29.8505 19.0664C11.5698 20.402 1.93125 39.196 11.2083 54.9324C11.4111 55.2751 11.6051 55.2751 11.8079 54.9324C16.7198 46.4624 21.7199 37.9396 26.8257 29.3729C28.0339 27.3432 29.1538 24.0395 30.1944 19.4618C30.2561 19.1807 30.1415 19.0489 29.8505 19.0664ZM20.4235 63.1214C25.2825 65.397 30.3884 66.0472 35.7324 65.0544C36.0146 65.0016 36.2527 64.8698 36.4379 64.659C39.392 61.3289 42.6549 58.3416 46.2263 55.7057C48.6426 53.922 54.2511 45.531 54.1894 42.6139C54.0924 37.5969 52.7255 33.1159 50.0888 29.162C49.9301 28.9248 49.6655 28.8018 49.3834 28.8193L41.7818 29.4519C41.5173 29.4783 41.2704 29.6277 41.1205 29.8561L20.2648 62.5942C20.1149 62.8314 20.1678 63.0071 20.4235 63.1214Z" fill="white"/>
</svg>
