<svg width="83" height="172" viewBox="0 0 83 172" fill="none" xmlns="http://www.w3.org/2000/svg">
<path d="M82.33 59.56C82.35 57.32 82 55.51 81.32 53.85C80.65 52.04 79.29 50.43 78.02 48.65C77.57 45.58 76.84 42.65 75.16 40.01C70.3 29.89 66.76 18.59 62.53 8.19001C61.31 5.20001 59.91 2.47001 58.04 0.160005C56.96 -0.119995 55.52 -0.0999947 54.82 0.890005C54.21 1.88001 52.94 3.92001 52.34 4.90001C52.16 5.18001 51.82 5.32001 51.5 5.23001C49.78 4.77001 47.94 4.58001 46 4.52001C36.79 4.23001 27.63 4.42001 18.51 5.13001C17.6 5.20001 16.8 5.74001 16.39 6.55001C14.91 9.48001 13.97 12.58 13.56 15.84C13.51 16.2 13.67 16.39 14.03 16.43L17.14 16.79L20.25 17.15C20.61 17.19 20.8 17.39 20.83 17.76C21.28 22.94 20.78 28.03 19.35 33.02C19.17 33.63 18.66 34.08 18.03 34.18C14.14 34.76 6.33 35.92 2.44 36.5C0.81 36.75 0 37.69 0 39.33V168.913C0 170.573 1.34726 171.917 3.00675 171.913L63.6875 171.777C65.3414 171.773 66.6803 170.431 66.6815 168.777C66.7122 127.477 67.1577 86.1816 66.91 44.88C67.3 43.88 67.82 43.82 68.45 44.69C69.79 46.54 71.08 48.37 72.3 50.16C73.52 51.95 74.68 53.71 75.77 55.45C77.72 58.55 76.98 62.84 77.02 66.26C77.31 94.67 77.31 123.07 77.02 151.47C77.08 154.53 75.33 157.64 75.88 160.72C76.73 161.19 77.95 161.01 78.85 160.87C79.79 160.64 80.97 160.32 81.66 159.53C82.04 158.47 81.87 157.36 81.99 156.02C82.09 143.2 81.93 130.92 82.03 113.46C82.08 98.01 82.18 80.04 82.32 59.56H82.33ZM28.11 64.42C28.11 63.25 29.06 62.3 30.23 62.3C30.8 62.3 31.35 62.53 31.75 62.95C31.82 63.02 31.88 63.09 31.94 63.17C35.74 67.43 42.94 77.74 42.94 87.71C46.23 85.32 47.21 81.01 47.21 80.98C47.4 79.98 48.27 79.25 49.29 79.25C50.16 79.25 50.94 79.78 51.26 80.59C51.26 80.59 51.26 80.59 51.26 80.6C53.09 84.47 55.63 93.21 55.63 98.29C55.63 110.75 46.74 116.63 46.4 116.85C46.36 116.88 46.33 116.91 46.29 116.94C45.93 117.2 45.5 117.34 45.05 117.35C44.06 117.35 43.2 116.66 42.99 115.69C40.6 105.55 28.73 104.31 32.36 94.06C32.36 94.06 26.01 96.56 26.01 103.35C26.01 107.49 29.65 112.02 31.58 113.58C32.07 113.99 32.36 114.59 32.36 115.23C32.36 116.4 31.41 117.35 30.24 117.35C30.09 117.35 29.95 117.33 29.8 117.3C25.5 116.83 13.3 109.55 13.3 98.29C13.3 83.47 28.12 75.12 28.12 64.42H28.11ZM59.52 147.31C54.47 149.25 45.03 150.13 35.43 150.13C24.98 150.13 14.33 149.09 8.93 147.24C8.29 147.02 7.99 146.3 8.25 145.68L10.88 139.59C11.12 139.03 11.75 138.76 12.33 138.95C21.19 141.89 47.67 142.02 55.73 139.17C56.3 138.97 56.92 139.21 57.19 139.74L60.12 145.71C60.42 146.32 60.15 147.06 59.51 147.31H59.52Z" fill="white"/>
</svg>
