<svg width="72" height="184" viewBox="0 0 72 184" fill="none" xmlns="http://www.w3.org/2000/svg">
<path d="M10.0749 37.35C12.8449 25.24 19.0449 15.32 28.7149 7.56C29.6249 6.83 30.8949 7.8 30.4349 8.87C28.4149 13.52 27.9649 18.35 29.1049 23.36C29.4249 24.8 31.1249 25.4 32.2949 24.51C39.7949 18.79 42.9049 11.13 41.6349 1.53C41.5349 0.859999 42.2849 0.399999 42.8449 0.779999C59.3349 12.34 64.0049 27.68 56.8549 46.82C56.7149 47.16 57.0349 47.53 57.4049 47.43C62.4949 46.18 67.0049 47.27 70.9049 50.68C71.4549 51.17 71.3049 52.03 70.6449 52.34C64.4849 55.13 58.9649 59.41 54.1349 65.22C52.2549 67.48 49.5649 69.51 46.0949 71.28C45.4849 71.58 45.2249 72.09 45.3249 72.76C45.9549 77.27 47.2449 82.42 43.1449 85.7C42.5949 86.12 42.4149 86.65 42.5749 87.32C43.8249 92.6 44.4749 96.92 48.2949 101.35C55.2849 109.48 56.9649 116.33 56.9649 127.73C56.9449 145.29 56.9449 162.82 56.9449 180.32C56.9449 182 55.5949 183.35 53.9149 183.35H13.9749C12.4749 183.35 11.2649 182.18 11.2049 180.68C10.5149 163.78 10.3949 147.21 10.8649 130.94C11.3049 116.16 11.3249 110.32 20.9949 100.4C22.5949 98.74 24.0449 94.36 25.3449 87.26C25.4849 86.51 25.2449 85.95 24.6149 85.54L22.9349 84.41C22.3449 84.03 22.0649 83.48 22.0649 82.77V74.68C22.0649 74.05 21.6849 73.47 21.0949 73.24C2.87488 65.81 -4.70512 46.07 5.06488 28.84C5.52488 28.01 6.78488 28.21 6.98488 29.14L8.76488 37.35C9.18488 39.31 9.63488 39.31 10.0749 37.35ZM26.8149 67.2C35.3049 74.82 49.0849 68.19 45.4749 56.35C43.6949 50.51 42.7649 44.55 42.7049 38.46C42.7049 37.79 42.3849 37.55 41.7349 37.75C30.8849 41.33 13.2549 54.99 26.8149 67.2Z" fill="white"/>
</svg>
